<svg width="292" height="292" viewBox="0 0 292 292" fill="none" xmlns="http://www.w3.org/2000/svg">
<g clip-path="url(#clip0_10_22)">
<path fill-rule="evenodd" clip-rule="evenodd" d="M205.614 87.5998C205.614 55.3922 178.877 29.1998 146 29.1998C113.123 29.1998 86.3865 55.3922 86.3865 87.5998C86.3865 119.807 113.123 146 146 146C178.877 146 205.614 119.807 205.614 87.5998ZM262.008 292H235.421C227.194 292 220.517 285.459 220.517 277.4C220.517 269.341 227.194 262.8 235.421 262.8H241.814C252.127 262.8 259.743 252.623 255.838 243.265C237.79 199.99 195.405 175.2 146 175.2C96.5954 175.2 54.21 199.99 36.162 243.265C32.2573 252.623 39.8732 262.8 50.1864 262.8H56.5797C64.8063 262.8 71.4831 269.341 71.4831 277.4C71.4831 285.459 64.8063 292 56.5797 292H29.9919C11.3627 292 -3.30226 275.312 0.647144 257.485C11.4968 208.444 45.3725 172.25 89.9933 155.825C69.6352 139.78 56.5797 115.194 56.5797 87.5998C56.5797 35.7552 102.542 -5.56294 156.716 0.612862C195.971 5.08046 228.49 35.7252 234.377 74.021C239.444 107.032 225.659 137.181 202.007 155.825C246.628 172.25 280.504 208.444 291.353 257.485C295.303 275.312 280.638 292 262.008 292ZM192.514 225.774C198.341 231.483 198.341 240.725 192.514 246.434L146 292L114.39 261.034C108.563 255.325 108.563 246.083 114.39 240.374C120.202 234.68 129.636 234.68 135.464 240.374L146 250.711L171.44 225.774C177.267 220.08 186.701 220.08 192.514 225.774Z" fill="#E8D422"/>
</g>
<defs>
<clipPath id="clip0_10_22">
<rect width="292" height="292" fill="white"/>
</clipPath>
</defs>
</svg>
