<svg width="49" height="49" viewBox="0 0 49 49" fill="none" xmlns="http://www.w3.org/2000/svg">
<g clip-path="url(#clip0_14_176)">
<mask id="mask0_14_176" style="mask-type:luminance" maskUnits="userSpaceOnUse" x="0" y="0" width="49" height="49">
<path d="M49 0H0V49H49V0Z" fill="white"/>
</mask>
<g mask="url(#mask0_14_176)">
<g filter="url(#filter0_d_14_176)">
<path d="M29.2703 25.2076L28.7395 24.3357C28.3959 24.5449 28.2072 24.9363 28.2576 25.3355C28.3079 25.7344 28.5878 26.0668 28.9726 26.1842L29.2703 25.2076ZM19.7294 25.2076L20.0271 26.1842C20.4119 26.0668 20.6918 25.7344 20.7423 25.3355C20.7925 24.9363 20.6038 24.5449 20.2602 24.3357L19.7294 25.2076ZM32.6666 17.3542C32.6666 20.3105 31.0964 22.901 28.7395 24.3357L29.8011 26.0796C32.7411 24.2899 34.7083 21.0522 34.7083 17.3542H32.6666ZM24.5 9.18751C29.0102 9.18751 32.6666 12.8438 32.6666 17.3542H34.7083C34.7083 11.7163 30.1378 7.14584 24.5 7.14584V9.18751ZM16.3332 17.3542C16.3332 12.8438 19.9895 9.18751 24.5 9.18751V7.14584C18.862 7.14584 14.2915 11.7163 14.2915 17.3542H16.3332ZM20.2602 24.3357C17.9034 22.901 16.3332 20.3105 16.3332 17.3542H14.2915C14.2915 21.0522 16.2586 24.2899 19.1986 26.0796L20.2602 24.3357ZM19.4317 24.2311C12.9867 26.1964 8.13306 31.81 7.2794 38.6696L9.30542 38.9217C10.058 32.8745 14.3402 27.9182 20.0271 26.1842L19.4317 24.2311ZM7.2794 38.6696C7.05377 40.4826 8.55566 41.8542 10.2082 41.8542V39.8125C9.60561 39.8125 9.25254 39.3468 9.30542 38.9217L7.2794 38.6696ZM10.2082 41.8542H38.7916V39.8125H10.2082V41.8542ZM38.7916 41.8542C40.4441 41.8542 41.946 40.4826 41.7204 38.6696L39.6942 38.9217C39.7471 39.3468 39.3941 39.8125 38.7916 39.8125V41.8542ZM41.7204 38.6696C40.8668 31.81 36.0131 26.1964 29.568 24.2311L28.9726 26.1842C34.6595 27.9182 38.9417 32.8745 39.6942 38.9217L41.7204 38.6696Z" fill="white"/>
</g>
</g>
</g>
<defs>
<filter id="filter0_d_14_176" x="-26.0765" y="7.14584" width="101.153" height="101.375" filterUnits="userSpaceOnUse" color-interpolation-filters="sRGB">
<feFlood flood-opacity="0" result="BackgroundImageFix"/>
<feColorMatrix in="SourceAlpha" type="matrix" values="0 0 0 0 0 0 0 0 0 0 0 0 0 0 0 0 0 0 127 0" result="hardAlpha"/>
<feOffset dy="33.3333"/>
<feGaussianBlur stdDeviation="16.6667"/>
<feColorMatrix type="matrix" values="0 0 0 0 0 0 0 0 0 0 0 0 0 0 0 0 0 0 0.1 0"/>
<feBlend mode="normal" in2="BackgroundImageFix" result="effect1_dropShadow_14_176"/>
<feBlend mode="normal" in="SourceGraphic" in2="effect1_dropShadow_14_176" result="shape"/>
</filter>
<clipPath id="clip0_14_176">
<rect width="49" height="49" fill="white"/>
</clipPath>
</defs>
</svg>
