<svg width="308" height="308" viewBox="0 0 308 308" fill="none" xmlns="http://www.w3.org/2000/svg">
<g clip-path="url(#clip0_10_39)">
<path d="M163.625 288.75C174.256 288.75 182.875 280.131 182.875 269.5C182.875 258.869 174.256 250.25 163.625 250.25C152.994 250.25 144.375 258.869 144.375 269.5C144.375 280.131 152.994 288.75 163.625 288.75Z" fill="#E8D422"/>
<path d="M130.764 144.376L76.9997 198.14L90.6101 211.751L144.375 157.986L130.764 144.376Z" fill="#E8D422"/>
<path d="M269.5 159.621L186.863 77H57.75V96.25H178.887L207.762 125.125L57.75 275.139L71.3607 288.75L221.375 138.744L255.871 173.25L221.375 207.764L234.986 221.375L269.5 186.879C273.11 183.262 275.138 178.36 275.138 173.25C275.138 168.14 273.11 163.238 269.5 159.621Z" fill="#E8D422"/>
<path d="M235.812 86.625C229.15 86.625 222.637 84.6493 217.097 80.9476C211.557 77.246 207.239 71.9847 204.689 65.8292C202.14 59.6736 201.472 52.9001 202.772 46.3654C204.072 39.8307 207.281 33.8281 211.992 29.1169C216.703 24.4056 222.706 21.1972 229.24 19.8973C235.775 18.5975 242.549 19.2646 248.704 21.8143C254.86 24.3641 260.121 28.6819 263.823 34.2217C267.524 39.7616 269.5 46.2748 269.5 52.9375C269.49 61.8689 265.937 70.4315 259.622 76.7469C253.306 83.0623 244.744 86.6148 235.812 86.625ZM235.812 38.5C232.957 38.5 230.166 39.3468 227.791 40.9332C225.417 42.5196 223.567 44.7744 222.474 47.4125C221.381 50.0506 221.095 52.9535 221.652 55.7541C222.209 58.5547 223.585 61.1273 225.604 63.1464C227.623 65.1655 230.195 66.5405 232.996 67.0976C235.796 67.6547 238.699 67.3688 241.337 66.276C243.976 65.1833 246.23 63.3328 247.817 60.9586C249.403 58.5843 250.25 55.793 250.25 52.9375C250.246 49.1098 248.723 45.4401 246.017 42.7334C243.31 40.0268 239.64 38.5043 235.812 38.5Z" fill="#E8D422"/>
</g>
<defs>
<clipPath id="clip0_10_39">
<rect width="308" height="308" fill="white"/>
</clipPath>
</defs>
</svg>
